<svg width="33" height="30" viewBox="0 0 33 30" fill="none" xmlns="http://www.w3.org/2000/svg">
<path d="M11.498 28.7529H2.37402C1.87691 28.7521 1.40016 28.5542 1.04883 28.2025C0.6975 27.8508 0.500264 27.3741 0.5 26.877V11.877C0.500264 11.3798 0.6975 10.9031 1.04883 10.5514C1.40016 10.1997 1.87691 10.0018 2.37402 10.001H2.99902V8.12695C2.99889 8.04484 3.01454 7.96346 3.0459 7.88757C3.07726 7.81169 3.12358 7.74276 3.18164 7.68469C3.2397 7.62663 3.30888 7.58068 3.38477 7.54932C3.46065 7.51795 3.54191 7.50182 3.62402 7.50195H6.12402C6.20605 7.50195 6.28751 7.51814 6.36328 7.54956C6.43905 7.58098 6.50747 7.62701 6.56543 7.68506C6.62339 7.74311 6.66987 7.81199 6.70117 7.88782C6.73247 7.96364 6.74818 8.04492 6.74805 8.12695V10.001H11.498C12.0972 9.6818 12.7254 9.42028 13.374 9.21997V7.50195H11.498C11.0006 7.50169 10.5236 7.30391 10.1719 6.95215C9.82011 6.60039 9.62234 6.12344 9.62207 5.62598V1.87598C9.62207 1.37843 9.82006 0.901257 10.1719 0.549438C10.5237 0.19762 11.0005 0 11.498 0H21.498C21.9952 0.000530064 22.4719 0.19841 22.8232 0.550171C23.1746 0.901932 23.3721 1.37878 23.3721 1.87598V5.62598C23.3718 6.1231 23.1746 6.59983 22.8232 6.95154C22.4719 7.30324 21.9952 7.50116 21.498 7.50195H19.6221V9.21997C20.2708 9.4201 20.899 9.68163 21.498 10.001H26.2471V8.12695C26.2471 7.96119 26.3125 7.80227 26.4297 7.68506C26.5469 7.56785 26.7063 7.50195 26.8721 7.50195H29.3721C29.4542 7.50182 29.5354 7.51795 29.6113 7.54932C29.6872 7.58068 29.7564 7.62663 29.8145 7.68469C29.8725 7.74276 29.9188 7.81169 29.9502 7.88757C29.9816 7.96346 29.9972 8.04484 29.9971 8.12695V10.001H30.6221C31.1194 10.0018 31.5956 10.1996 31.9473 10.5513C32.2989 10.9029 32.4973 11.3797 32.498 11.877V26.877C32.4973 27.3743 32.2989 27.851 31.9473 28.2026C31.5956 28.5543 31.1194 28.7521 30.6221 28.7529H21.498C19.9588 29.5724 18.2418 30.001 16.498 30.001C14.7543 30.001 13.0373 29.5724 11.498 28.7529ZM7.12305 19.376C7.12285 21.2304 7.67206 23.0432 8.70215 24.5852C9.73223 26.1272 11.197 27.329 12.9102 28.0388C14.6233 28.7486 16.5083 28.9346 18.3271 28.573C20.146 28.2114 21.8165 27.3186 23.1279 26.0074C24.4393 24.6963 25.3324 23.0259 25.6943 21.2072C26.0563 19.3884 25.8716 17.5031 25.1621 15.7898C24.4526 14.0765 23.2507 12.6121 21.709 11.5817C20.1672 10.5513 18.3544 10.0012 16.5 10.001C14.0131 10.001 11.6278 10.9887 9.86914 12.7469C8.11048 14.5052 7.1226 16.8901 7.12207 19.377L7.12305 19.376ZM23.3457 27.502H30.624C30.7898 27.502 30.9492 27.4361 31.0664 27.3188C31.1836 27.2016 31.249 27.0427 31.249 26.877V25.002H25.5137C24.9255 25.9433 24.1937 26.7868 23.3447 27.502H23.3457ZM1.74609 26.877C1.74609 27.0427 1.8115 27.2016 1.92871 27.3188C2.04592 27.4361 2.20533 27.502 2.37109 27.502H9.65039C8.80149 26.7868 8.06971 25.9433 7.48145 25.002H1.74609V26.877ZM27.1221 19.377C27.1223 20.8861 26.8014 22.3779 26.1816 23.7539H31.2461V15.002H26.1816C26.8021 16.3771 27.1236 17.8683 27.124 19.377H27.1221ZM1.74609 23.7539H6.8125C6.19205 22.3776 5.87109 20.8852 5.87109 19.3755C5.87109 17.8658 6.19205 16.3733 6.8125 14.9969H1.74609V23.7539ZM25.5107 13.7539H31.2461V11.88C31.2461 11.7142 31.1807 11.5552 31.0635 11.438C30.9463 11.3208 30.7869 11.255 30.6211 11.255H23.3428C24.1914 11.9692 24.9235 12.8113 25.5127 13.751L25.5107 13.7539ZM1.74609 11.88V13.7539H7.48145C8.06996 12.8128 8.80171 11.9693 9.65039 11.2539H2.37109C2.20643 11.2557 2.04906 11.322 1.93262 11.4385C1.81617 11.5549 1.74987 11.7123 1.74805 11.877L1.74609 11.88ZM27.498 10.002H28.748V8.75098H27.498V10.002ZM4.24707 10.002H5.49707V8.75098H4.24707V10.002ZM18.3711 8.91895V7.50195H14.6211V8.91797C15.8611 8.69433 17.1311 8.69433 18.3711 8.91797V8.91895ZM10.8711 1.87793V5.62793C10.8714 5.79378 10.9373 5.95276 11.0547 6.06995C11.1721 6.18713 11.3312 6.25293 11.4971 6.25293H21.4971C21.6627 6.25266 21.8215 6.18676 21.9385 6.06958C22.0555 5.9524 22.1211 5.79352 22.1211 5.62793V1.87793C22.1211 1.71234 22.0555 1.55358 21.9385 1.4364C21.8215 1.31922 21.6627 1.25319 21.4971 1.25293H11.4971C11.3316 1.25346 11.1726 1.31952 11.0557 1.43665C10.9387 1.55377 10.8733 1.71242 10.873 1.87793H10.8711ZM8.37109 19.3779C8.3709 17.771 8.84668 16.2001 9.73926 14.8639C10.6318 13.5277 11.9012 12.486 13.3857 11.8708C14.8703 11.2557 16.504 11.0946 18.0801 11.4078C19.6562 11.7211 21.1038 12.4946 22.2402 13.6306C23.3767 14.7667 24.151 16.2143 24.4648 17.7903C24.7787 19.3663 24.6176 20.9999 24.0029 22.4846C23.3883 23.9694 22.3476 25.2385 21.0117 26.1316C19.6758 27.0247 18.105 27.5016 16.498 27.502C14.3439 27.4996 12.2791 26.6427 10.7559 25.1195C9.23264 23.5963 8.37543 21.5311 8.37305 19.377L8.37109 19.3779ZM9.62109 19.3779C9.62129 20.7375 10.0248 22.0666 10.7803 23.197C11.5357 24.3274 12.6091 25.2085 13.8652 25.7288C15.1214 26.249 16.5034 26.3851 17.8369 26.1199C19.1704 25.8546 20.396 25.2 21.3574 24.2386C22.3189 23.2773 22.9738 22.0526 23.2393 20.7191C23.5047 19.3857 23.3687 18.0034 22.8486 16.7472C22.3286 15.491 21.4477 14.4171 20.3174 13.6615C19.1871 12.9059 17.8577 12.5023 16.498 12.502C14.6754 12.5043 12.9284 13.2294 11.6396 14.5182C10.3509 15.807 9.62543 17.5543 9.62305 19.377L9.62109 19.3779ZM20.8711 19.3779C20.87 18.5965 20.6597 17.8296 20.2627 17.1566C19.8657 16.4836 19.2966 15.9289 18.6133 15.5499C18.5386 15.5118 18.4719 15.4591 18.418 15.3949C18.3641 15.3306 18.3234 15.2562 18.2988 15.176C18.2743 15.0958 18.2667 15.0114 18.2754 14.928C18.2841 14.8446 18.309 14.7638 18.3496 14.6904C18.3902 14.617 18.4457 14.5525 18.5117 14.5009C18.5778 14.4492 18.6534 14.4113 18.7344 14.3895C18.8154 14.3677 18.9003 14.3626 18.9834 14.3741C19.0665 14.3857 19.1458 14.4138 19.2178 14.4569C20.0959 14.9442 20.828 15.6574 21.3379 16.5226C21.8478 17.3878 22.1173 18.3736 22.1182 19.3779C22.1182 19.5437 22.0518 19.7027 21.9346 19.8199C21.8174 19.9372 21.6589 20.0029 21.4932 20.0029C21.3274 20.0029 21.168 19.9372 21.0508 19.8199C20.9336 19.7027 20.8682 19.5437 20.8682 19.3779H20.8711ZM28.748 16.8779C28.7481 16.7572 28.7828 16.6391 28.8486 16.5378C28.9145 16.4366 29.0087 16.3566 29.1191 16.3076C29.2295 16.2587 29.3515 16.2428 29.4707 16.262C29.5899 16.2811 29.7015 16.3344 29.791 16.4154C29.8805 16.4965 29.9447 16.6017 29.9756 16.7185C30.0065 16.8353 30.0026 16.9585 29.9648 17.0732C29.9271 17.188 29.8569 17.2892 29.7627 17.3647C29.6685 17.4403 29.5538 17.4869 29.4336 17.4989C29.4123 17.5 29.3914 17.5 29.3701 17.4989C29.2057 17.4984 29.0478 17.4328 28.9316 17.3164C28.8155 17.2 28.7503 17.0424 28.75 16.8779H28.748ZM16.4336 14.9979C16.2719 14.9896 16.1207 14.9184 16.0107 14.7996C15.9008 14.6807 15.8415 14.5237 15.8457 14.3618C15.8499 14.1999 15.9163 14.046 16.0322 13.933C16.1482 13.82 16.3039 13.7568 16.4658 13.7568C16.6277 13.7568 16.7834 13.82 16.8994 13.933C17.0154 14.046 17.0827 14.1999 17.0869 14.3618C17.0911 14.5237 17.0319 14.6807 16.9219 14.7996C16.8119 14.9184 16.6598 14.9896 16.498 14.9979C16.478 15.0019 16.4585 15.002 16.4365 15.002L16.4336 14.9979ZM19.6221 4.37695V3.12695C19.6221 2.96119 19.6875 2.80227 19.8047 2.68506C19.9219 2.56785 20.0813 2.50195 20.2471 2.50195C20.4128 2.50195 20.5722 2.56785 20.6895 2.68506C20.8067 2.80227 20.8721 2.96119 20.8721 3.12695V4.37695C20.8721 4.54271 20.8067 4.70164 20.6895 4.81885C20.5722 4.93606 20.4128 5.00195 20.2471 5.00195C20.0813 5.00195 19.9219 4.93606 19.8047 4.81885C19.6875 4.70164 19.6221 4.54271 19.6221 4.37695Z" fill="white"/>
</svg>