<svg width="31" height="31" viewBox="0 0 31 31" fill="none" xmlns="http://www.w3.org/2000/svg">
<path d="M9.941 30.166L7.72 21.151H4.042V30.06C4.042 30.1766 3.9957 30.2884 3.91327 30.3708C3.83085 30.4532 3.71906 30.4995 3.6025 30.4995C3.48594 30.4995 3.37415 30.4532 3.29173 30.3708C3.2093 30.2884 3.163 30.1766 3.163 30.06V8.09C3.17079 7.42106 3.43991 6.7817 3.91286 6.30856C4.38581 5.83543 5.02506 5.56605 5.694 5.558H12.542C12.1346 5.2237 11.8337 4.77782 11.676 4.275H5.694C4.68252 4.27606 3.71278 4.67834 2.99756 5.39356C2.28234 6.10878 1.88006 7.07852 1.879 8.09V24.87C1.879 24.9866 1.8327 25.0984 1.75027 25.1808C1.66785 25.2632 1.55606 25.3095 1.4395 25.3095C1.32294 25.3095 1.21115 25.2632 1.12873 25.1808C1.0463 25.0984 1 24.9866 1 24.87V8.09C1.00265 6.84625 1.49817 5.65427 2.378 4.77518C3.25784 3.89609 4.45025 3.40159 5.694 3.4H11.031L10.177 2.5C9.84118 2.14695 9.4373 1.86561 8.98975 1.67294C8.5422 1.48027 8.06026 1.38028 7.573 1.379H6.873C6.75644 1.379 6.64465 1.3327 6.56223 1.25027C6.4798 1.16785 6.4335 1.05606 6.4335 0.9395C6.4335 0.822937 6.4798 0.711149 6.56223 0.628727C6.64465 0.546304 6.75644 0.5 6.873 0.5H7.573C8.17921 0.501216 8.7789 0.625179 9.33592 0.864414C9.89293 1.10365 10.3957 1.4532 10.814 1.892L11.791 2.92C11.9942 2.45403 12.3642 2.08082 12.8284 1.87361C13.2926 1.6664 13.8174 1.64014 14.3 1.8C15.1 2.009 15.238 2.434 16.735 1.8C17.2179 1.63964 17.7434 1.66574 18.2081 1.87319C18.6727 2.08063 19.043 2.4544 19.246 2.921L20.224 1.891C20.6427 1.45202 21.146 1.10244 21.7036 0.863365C22.2611 0.624291 22.8614 0.500682 23.468 0.5L24.168 0.5C24.2846 0.5 24.3964 0.546304 24.4788 0.628727C24.5612 0.711149 24.6075 0.822937 24.6075 0.9395C24.6075 1.05606 24.5612 1.16785 24.4788 1.25027C24.3964 1.3327 24.2846 1.379 24.168 1.379H23.468C22.9806 1.3802 22.4985 1.48016 22.0507 1.67282C21.603 1.86549 21.199 2.14688 20.863 2.5L19.411 4.026C19.3045 4.63076 18.9805 5.17567 18.5 5.558C18.5 5.558 25.421 5.558 25.433 5.558C26.0888 5.58157 26.7099 5.85864 27.1656 6.33089C27.6212 6.80315 27.8759 7.43376 27.876 8.09V30.06C27.876 30.1766 27.8297 30.2884 27.7473 30.3708C27.6649 30.4532 27.5531 30.4995 27.4365 30.4995C27.3199 30.4995 27.2081 30.4532 27.1257 30.3708C27.0433 30.2884 26.997 30.1766 26.997 30.06V21.151H23.319L21.1 30.166C21.0722 30.2791 21.0005 30.3765 20.9008 30.4368C20.8012 30.4971 20.6816 30.5153 20.5685 30.4875C20.4554 30.4597 20.358 30.388 20.2977 30.2883C20.2374 30.1887 20.2192 30.0691 20.247 29.956L22.275 21.726L21.639 22.178C21.5439 22.2455 21.4259 22.2725 21.311 22.253C21.196 22.2335 21.0935 22.1691 21.026 22.074C20.9585 21.9789 20.9315 21.8609 20.951 21.746C20.9705 21.631 21.0349 21.5285 21.13 21.461L22.538 20.461V18.184L18.281 12.466C17.4485 11.3427 16.9978 9.98218 16.995 8.584V7.055L16.213 7.833C16.0291 8.01541 15.7805 8.11775 15.5215 8.11775C15.2625 8.11775 15.0139 8.01541 14.83 7.833L14.048 7.055V8.585C14.0449 9.98313 13.5942 11.3435 12.762 12.467L8.5 18.184V20.484L9.874 21.459C9.92108 21.4924 9.96111 21.5348 9.99182 21.5837C10.0225 21.6326 10.0433 21.687 10.053 21.744C10.0626 21.8009 10.061 21.8592 10.0481 21.9154C10.0352 21.9717 10.0114 22.0249 9.978 22.072C9.94458 22.1191 9.90221 22.1591 9.85332 22.1898C9.80442 22.2205 9.74996 22.2413 9.69304 22.251C9.63612 22.2606 9.57785 22.259 9.52156 22.2461C9.46528 22.2332 9.41208 22.2094 9.365 22.176L8.765 21.753L10.786 29.953C10.8138 30.0661 10.7956 30.1857 10.7353 30.2853C10.675 30.385 10.5776 30.4567 10.4645 30.4845C10.3514 30.5123 10.2318 30.4941 10.1322 30.4338C10.0325 30.3735 9.96085 30.2761 9.933 30.163L9.941 30.166ZM23.415 20.273H27V18.478H23.414L23.415 20.273ZM4.042 20.273H7.624V18.478H4.042V20.273ZM4.042 8.09V17.6H7.842L12.054 11.942C12.7736 10.9705 13.1633 9.79404 13.166 8.585V8.585V6.438H10.589V8.7C10.5889 9.52191 10.3671 10.3286 9.947 11.035L7.983 14.335C7.95352 14.3846 7.91456 14.4279 7.86835 14.4624C7.82214 14.4969 7.76959 14.522 7.71369 14.5362C7.65779 14.5504 7.59963 14.5534 7.54255 14.5452C7.48547 14.5369 7.43057 14.5175 7.381 14.488C7.33143 14.4585 7.28814 14.4196 7.25363 14.3734C7.21911 14.3271 7.19403 14.2746 7.17982 14.2187C7.16561 14.1628 7.16256 14.1046 7.17082 14.0476C7.17909 13.9905 7.19852 13.9356 7.228 13.886L9.192 10.586C9.53117 10.0154 9.71012 9.36382 9.71 8.7V6.438H7.31V7.956C7.30992 8.76682 7.09421 9.56302 6.685 10.263L6.031 11.382C5.97212 11.4826 5.87567 11.5558 5.76287 11.5853C5.65007 11.6149 5.53015 11.5984 5.4295 11.5395C5.32885 11.4806 5.25571 11.3842 5.22618 11.2714C5.19664 11.1586 5.21312 11.0386 5.272 10.938L5.927 9.819C6.25586 9.2533 6.42842 8.61034 6.427 7.956V6.438H5.649C5.21962 6.45246 4.81249 6.63253 4.51293 6.94049C4.21336 7.24844 4.0446 7.66038 4.042 8.09V8.09ZM17.872 8.59C17.8745 9.79907 18.2642 10.9756 18.984 11.947L23.2 17.6H27V8.09C26.9995 7.65581 26.8283 7.23921 26.5234 6.93014C26.2184 6.62106 25.8042 6.4443 25.37 6.438H24.609V7.956C24.6076 8.61034 24.7802 9.25328 25.109 9.819L25.764 10.938C25.7932 10.9878 25.8122 11.0429 25.8201 11.1001C25.8279 11.1573 25.8244 11.2155 25.8098 11.2714C25.7952 11.3272 25.7697 11.3797 25.7348 11.4257C25.6999 11.4717 25.6563 11.5103 25.6065 11.5395C25.5567 11.5687 25.5016 11.5877 25.4444 11.5956C25.3872 11.6034 25.329 11.5999 25.2731 11.5853C25.2173 11.5707 25.1648 11.5452 25.1188 11.5103C25.0728 11.4754 25.0342 11.4318 25.005 11.382L24.35 10.263C23.9408 9.56301 23.7251 8.76681 23.725 7.956V6.438H21.325V8.7C21.3252 9.36391 21.5045 10.0155 21.844 10.586C21.9035 10.6861 21.9209 10.8058 21.8922 10.9187C21.8635 11.0316 21.7911 11.1285 21.691 11.188C21.5909 11.2475 21.4712 11.2649 21.3583 11.2362C21.2454 11.2075 21.1485 11.1351 21.089 11.035C20.67 10.3283 20.4492 9.52162 20.45 8.7V6.438H17.872V8.59ZM12.851 4.626L15.451 7.211C15.4603 7.22052 15.4714 7.22809 15.4837 7.23326C15.496 7.23843 15.5092 7.24109 15.5225 7.24109C15.5358 7.24109 15.549 7.23843 15.5613 7.23326C15.5736 7.22809 15.5847 7.22052 15.594 7.211L18.194 4.626C18.3685 4.45391 18.4866 4.2328 18.5325 3.99204C18.5784 3.75127 18.55 3.50223 18.451 3.278C18.3355 3.01107 18.1242 2.79708 17.8588 2.67824C17.5934 2.5594 17.293 2.54433 17.017 2.636L15.831 3.025C15.6326 3.09046 15.4184 3.09046 15.22 3.025L14.034 2.636C13.9119 2.59824 13.7848 2.57869 13.657 2.578C13.4234 2.58624 13.1973 2.66254 13.0064 2.79752C12.8156 2.93249 12.6683 3.12027 12.5827 3.3378C12.4971 3.55532 12.4769 3.79311 12.5245 4.02196C12.5722 4.2508 12.6857 4.46075 12.851 4.626V4.626ZM29.16 30.06V8.09C29.1587 7.0787 28.7563 6.10921 28.0411 5.3942C27.3259 4.6792 26.3563 4.27706 25.345 4.276H21.47C21.4123 4.276 21.3551 4.26463 21.3018 4.24255C21.2485 4.22046 21.2 4.18808 21.1592 4.14727C21.1184 4.10646 21.086 4.05801 21.064 4.00469C21.0419 3.95137 21.0305 3.89422 21.0305 3.8365C21.0305 3.77878 21.0419 3.72163 21.064 3.66831C21.086 3.61499 21.1184 3.56654 21.1592 3.52573C21.2 3.48492 21.2485 3.45254 21.3018 3.43045C21.3551 3.40837 21.4123 3.397 21.47 3.397H25.345C26.5893 3.39859 27.7821 3.8935 28.6621 4.77324C29.542 5.65298 30.0371 6.84573 30.039 8.09V30.06C30.039 30.1766 29.9927 30.2884 29.9103 30.3708C29.8279 30.4532 29.7161 30.4995 29.5995 30.4995C29.4829 30.4995 29.3711 30.4532 29.2887 30.3708C29.2063 30.2884 29.16 30.1766 29.16 30.06ZM1 30.06V26.9C1 26.7834 1.0463 26.6716 1.12873 26.5892C1.21115 26.5068 1.32294 26.4605 1.4395 26.4605C1.55606 26.4605 1.66785 26.5068 1.75027 26.5892C1.8327 26.6716 1.879 26.7834 1.879 26.9V30.06C1.879 30.1766 1.8327 30.2884 1.75027 30.3708C1.66785 30.4532 1.55606 30.4995 1.4395 30.4995C1.32294 30.4995 1.21115 30.4532 1.12873 30.3708C1.0463 30.2884 1 30.1766 1 30.06V30.06ZM23.056 14.336L22.177 12.859C22.1475 12.8094 22.1281 12.7545 22.1198 12.6974C22.1116 12.6404 22.1146 12.5822 22.1288 12.5263C22.143 12.4704 22.1681 12.4179 22.2026 12.3716C22.2371 12.3254 22.2804 12.2865 22.33 12.257C22.3796 12.2275 22.4345 12.2081 22.4916 12.1998C22.5486 12.1916 22.6068 12.1946 22.6627 12.2088C22.7186 12.223 22.7711 12.2481 22.8174 12.2826C22.8636 12.3171 22.9025 12.3604 22.932 12.41L23.811 13.887C23.8705 13.9871 23.8879 14.1068 23.8592 14.2197C23.8305 14.3326 23.7581 14.4295 23.658 14.489C23.5579 14.5485 23.4382 14.5659 23.3253 14.5372C23.2124 14.5085 23.1155 14.4361 23.056 14.336V14.336Z" fill="white" stroke="#6B7983" stroke-width="0.2"/>
</svg>
